HIERARCHY
ROOT Hips
{
	OFFSET -0.001795 -0.223333 0.028219
	CHANNELS 6 Xposition Yposition Zposition Zrotation Yrotation Xrotation 
	JOINT LeftUpLeg
	{
		OFFSET 0.069520 -0.091406 -0.006815
		CHANNELS 3 Zrotation Yrotation Xrotation
		JOINT LeftLeg
		{
			OFFSET 0.034277 -0.375199 -0.004496
			CHANNELS 3 Zrotation Yrotation Xrotation
			JOINT LeftFoot
			{
				OFFSET -0.013596 -0.397961 -0.043693
				CHANNELS 3 Zrotation Yrotation Xrotation
				JOINT LeftToe
				{
					OFFSET 0.026358 -0.055791 0.119288
					CHANNELS 3 Zrotation Yrotation Xrotation
					End Site
					{
						OFFSET 0.000000 0.000000 0.000000
					}
				}
			}
		}
	}
	JOINT RightUpLeg
	{
		OFFSET -0.067670 -0.090522 -0.004320
		CHANNELS 3 Zrotation Yrotation Xrotation
		JOINT RightLeg
		{
			OFFSET -0.038290 -0.382569 -0.008850
			CHANNELS 3 Zrotation Yrotation Xrotation
			JOINT RightFoot
			{
				OFFSET 0.015774 -0.398415 -0.042312
				CHANNELS 3 Zrotation Yrotation Xrotation
				JOINT RightToe
				{
					OFFSET -0.025372 -0.048144 0.123348
					CHANNELS 3 Zrotation Yrotation Xrotation
					End Site
					{
						OFFSET 0.000000 0.000000 0.000000
					}
				}
			}
		}
	}
	JOINT Spine
	{
		OFFSET -0.002533 0.108963 -0.026696
		CHANNELS 3 Zrotation Yrotation Xrotation
		JOINT Spine1
		{
			OFFSET 0.005487 0.135180 0.001092
			CHANNELS 3 Zrotation Yrotation Xrotation
			JOINT Spine2
			{
				OFFSET 0.001457 0.052922 0.025425
				CHANNELS 3 Zrotation Yrotation Xrotation
				JOINT Neck
				{
					OFFSET -0.002778 0.213870 -0.042857
					CHANNELS 3 Zrotation Yrotation Xrotation
					JOINT Head
					{
						OFFSET 0.005152 0.064970 0.051349
						CHANNELS 3 Zrotation Yrotation Xrotation
						End Site
						{
							OFFSET 0.000000 0.000000 0.000000
						}
					}
				}
				JOINT LeftShoulder
				{
					OFFSET 0.078845 0.121749 -0.034090
					CHANNELS 3 Zrotation Yrotation Xrotation
					JOINT LeftArm
					{
						OFFSET 0.090977 0.030469 -0.008868
						CHANNELS 3 Zrotation Yrotation Xrotation
						JOINT LeftForeArm
						{
							OFFSET 0.259612 -0.012772 -0.027456
							CHANNELS 3 Zrotation Yrotation Xrotation
							JOINT LeftHand
							{
								OFFSET 0.249234 0.008986 -0.001171
								CHANNELS 3 Zrotation Yrotation Xrotation
								End Site
								{
									OFFSET 0.000000 0.000000 0.000000
								}
							}
						}
					}
				}
				JOINT RightShoulder
				{
					OFFSET -0.081759 0.118833 -0.038615
					CHANNELS 3 Zrotation Yrotation Xrotation
					JOINT RightArm
					{
						OFFSET -0.096012 0.032551 -0.009143
						CHANNELS 3 Zrotation Yrotation Xrotation
						JOINT RightForeArm
						{
							OFFSET -0.253742 -0.013329 -0.021401
							CHANNELS 3 Zrotation Yrotation Xrotation
							JOINT RightHand
							{
								OFFSET -0.255298 0.007772 -0.005559
								CHANNELS 3 Zrotation Yrotation Xrotation
								End Site
								{
									OFFSET 0.000000 0.000000 0.000000
								}
							}
						}
					}
				}
			}
		}
	}
}
MOTION
Frames: 6
Frame Time: 0.050000
0.000000 0.940132 0.000000 -1.330768 6.973301 -3.682626 -1.044481 0.322144 3.393012 -1.151422 0.047245 2.289843 -1.873095 -2.220059 2.784242 0.000000 0.000000 0.000000 1.868456 -0.415350 3.271676 -2.278391 0.384458 1.987046 -0.702962 -3.785007 5.994019 0.000000 0.000000 0.000000 2.199959 -0.227770 3.928241 -0.134869 -0.019078 1.743563 -2.812393 4.106359 0.290773 6.956912 -3.676428 -8.324121 0.000000 0.000000 0.000000 -21.391289 -6.100903 -1.291616 -49.157233 -3.703852 -3.381919 -13.763059 -22.725578 3.144633 0.000000 0.000000 0.000000 22.931333 2.546750 1.705899 52.985535 11.498549 -0.374655 9.563651 23.549801 2.902296 0.000000 0.000000 0.000000 
0.000655 0.939718 0.001250 -1.525898 6.734193 -3.514212 -0.964103 0.362567 3.876845 -1.002346 0.062064 1.250787 -1.777360 -2.085421 2.703098 0.000000 0.000000 0.000000 1.689732 -0.407050 3.249289 -1.673224 0.290643 1.770945 -0.573210 -3.501412 5.947539 0.000000 0.000000 0.000000 2.556443 -0.216852 3.571376 -0.661887 0.213440 2.438216 -2.625834 3.985273 -0.378729 7.138070 -3.502262 -9.778782 0.000000 0.000000 0.000000 -21.247369 -5.671562 -1.431680 -49.014018 -4.084598 -3.187773 -14.537704 -23.289144 3.379355 0.000000 0.000000 0.000000 22.877656 2.892797 1.801579 53.958785 12.262540 0.101982 9.594281 22.877908 2.793735 0.000000 0.000000 0.000000 
0.001150 0.939947 0.002525 -1.327471 5.964019 -3.616640 -1.501371 0.445116 4.463466 -0.577009 0.035426 0.696700 -1.500100 -1.451263 2.896022 0.000000 0.000000 0.000000 1.336252 -0.374566 3.090305 -1.576943 0.304262 2.340486 -0.288346 -2.866018 5.762225 0.000000 0.000000 0.000000 2.194648 -0.258983 4.422746 -0.301153 0.144909 0.207870 -2.521352 3.813977 0.711409 5.854986 -2.806786 -9.131304 0.000000 0.000000 0.000000 -21.206384 -5.806364 -1.160365 -49.377385 -3.794601 -3.479932 -13.914737 -22.203786 3.146721 0.000000 0.000000 0.000000 23.213436 3.394400 1.989898 53.038751 13.092091 0.330823 10.003857 23.692447 2.977515 0.000000 0.000000 0.000000 
0.001752 0.939071 0.004244 -1.500130 5.835660 -4.234273 -1.782376 0.559563 5.548536 0.210150 -0.027958 0.185021 -1.336151 -1.353725 2.491877 0.000000 0.000000 0.000000 1.545599 -0.373042 3.039289 -1.668918 0.389545 3.828416 -0.363659 -2.863749 5.206649 0.000000 0.000000 0.000000 2.135898 -0.299947 5.171794 -0.257331 0.077623 1.209239 -2.063775 3.091710 -0.714054 5.624707 -2.822625 -8.379270 0.000000 0.000000 0.000000 -21.230356 -5.189728 -1.289105 -49.787886 -4.185030 -3.299355 -13.425346 -21.908686 3.033340 0.000000 0.000000 0.000000 22.016429 4.099604 2.036053 53.909013 13.839350 0.971430 9.726497 23.976834 2.910644 0.000000 0.000000 0.000000 
0.002550 0.938898 0.006324 -1.522514 5.358272 -4.463544 -2.106712 0.638237 6.145804 0.700281 -0.066061 -0.117933 -1.102405 -0.945527 2.410523 0.000000 0.000000 0.000000 1.319819 -0.347401 2.893073 -1.356089 0.382953 4.724626 -0.208550 -2.464018 4.970842 0.000000 0.000000 0.000000 2.144305 -0.338989 5.809806 0.225384 -0.158657 1.138435 -2.444116 2.886289 -1.454308 5.482026 -2.836232 -7.797434 0.000000 0.000000 0.000000 -21.030598 -5.704862 -0.917413 -49.763499 -3.761797 -3.423952 -13.628580 -21.464033 3.017420 0.000000 0.000000 0.000000 21.958684 4.083452 1.886634 54.038272 13.818227 1.074707 9.664036 25.035913 3.025317 0.000000 0.000000 0.000000 
0.003676 0.937820 0.008682 -1.736996 5.274718 -4.611820 -2.021206 0.644777 6.274294 0.839649 -0.095444 0.231141 -0.899816 -0.868824 1.808477 0.000000 0.000000 0.000000 1.651629 -0.330624 2.680692 -1.626985 0.469736 5.656131 -0.298416 -2.512528 4.511326 0.000000 0.000000 0.000000 2.211292 -0.356594 6.046800 0.602044 -0.338948 0.986028 -2.542209 2.361942 -1.498862 5.486388 -2.865341 -7.802873 0.000000 0.000000 0.000000 -21.153975 -5.498559 -0.896709 -49.366331 -3.654155 -3.463130 -13.489346 -21.478942 3.019858 0.000000 0.000000 0.000000 22.066009 4.599686 2.033649 54.230270 13.913823 1.161765 9.220010 25.062730 2.907873 0.000000 0.000000 0.000000 
